<svg xmlns="http://www.w3.org/2000/svg" xmlns:xlink="http://www.w3.org/1999/xlink" width="1024" zoomAndPan="magnify" viewBox="0 0 768 767.999994" height="1024" preserveAspectRatio="xMidYMid meet" version="1.0"><defs><clipPath id="id1"><path d="M 3 246.71875 L 766 246.71875 L 766 521 L 3 521 Z M 3 246.71875 " clip-rule="nonzero"/></clipPath></defs><g clip-path="url(#id1)"><path fill="#8c52ff" d="M 12.648438 487.46875 C 0.953125 479.53125 3.4375 470.136719 6.589844 461.167969 C 15.195312 436.324219 27.921875 413.964844 47.316406 395.664062 C 109.136719 337.433594 182.355469 299.621094 263.996094 278.652344 C 347.695312 257.140625 430.304688 261.867188 510.1875 296.226562 C 547.765625 312.40625 584.496094 330.644531 622.921875 348.582031 C 621.527344 344.402344 620.253906 339.070312 618.070312 334.039062 C 603.464844 299.800781 604.738281 291.742188 630.859375 264.71875 C 636.679688 258.65625 643.589844 253.6875 651.710938 246.71875 C 656.074219 253.75 659.347656 258.71875 662.316406 263.867188 C 694.378906 319.191406 725.472656 375.121094 759.109375 429.539062 C 767.230469 442.75 766.503906 452.929688 761.167969 464.136719 C 750.382812 486.679688 731.410156 502.800781 711.652344 516.675781 C 704.742188 521.523438 691.832031 519.949219 682.074219 518.554688 C 610.617188 508.070312 538.855469 504.253906 466.914062 510.011719 C 444.488281 511.828125 422.367188 517.039062 398.121094 520.976562 C 395.457031 513.828125 399.878906 505.890625 404.121094 499.164062 C 424.0625 467.59375 448.304688 441.292969 488.066406 435.71875 C 506.855469 433.113281 525.582031 430.324219 544.371094 427.902344 C 552.734375 426.8125 561.21875 426.570312 571.585938 425.78125 C 533.21875 384.089844 364.605469 344.160156 279.085938 355.1875 C 175.082031 368.578125 86.835938 414.632812 12.648438 487.46875 Z M 12.648438 487.46875 " fill-opacity="1" fill-rule="nonzero"/></g></svg>